<svg width="17" height="14" viewBox="0 0 17 14" fill="none" xmlns="http://www.w3.org/2000/svg">
<path d="M2.92117 4.24931C2.38567 4.24931 1.94744 3.86424 1.94744 3.39476C1.94744 2.9244 2.38567 2.53932 2.92022 2.53932H15.0526V0.830206H2.92117C1.30333 0.830206 0 1.97577 0 3.39476V10.5741C0 11.9931 1.30428 13.1386 2.92117 13.1386H17V4.24931H2.92117ZM15.0526 11.4295H2.92117C2.38567 11.4295 1.94744 11.0444 1.94744 10.5741V5.69152C2.25911 5.78559 2.58967 5.95843 2.92022 5.95843H15.0526V11.4295Z" fill="#788290"/>
<path d="M12.1301 7.69501L10.7578 8.90036L12.1301 10.1136L13.5128 8.90036L12.1301 7.69589V7.69501Z" fill="#788290"/>
</svg>
